<svg xmlns="http://www.w3.org/2000/svg" width="32" height="32" viewBox="0 0 24 24" fill="none">
  <!-- Gradient definition for purple/violet theme -->
  <defs>
    <linearGradient id="sparkleGradient" x1="0%" y1="0%" x2="100%" y2="100%">
      <stop offset="0%" style="stop-color:#9333ea;stop-opacity:1" />
      <stop offset="100%" style="stop-color:#7c3aed;stop-opacity:1" />
    </linearGradient>
  </defs>
  
  <!-- Main sparkle shape with gradient fill -->
  <path d="M11.017 2.814a1 1 0 0 1 1.966 0l1.051 5.558a2 2 0 0 0 1.594 1.594l5.558 1.051a1 1 0 0 1 0 1.966l-5.558 1.051a2 2 0 0 0-1.594 1.594l-1.051 5.558a1 1 0 0 1-1.966 0l-1.051-5.558a2 2 0 0 0-1.594-1.594l-5.558-1.051a1 1 0 0 1 0-1.966l5.558-1.051a2 2 0 0 0 1.594-1.594z" fill="url(#sparkleGradient)" stroke="url(#sparkleGradient)" stroke-width="0.5"/>
  
  <!-- Top sparkle accent -->
  <path d="M20 2v4" stroke="url(#sparkleGradient)" stroke-width="2" stroke-linecap="round"/>
  <path d="M22 4h-4" stroke="url(#sparkleGradient)" stroke-width="2" stroke-linecap="round"/>
  
  <!-- Bottom sparkle accent -->
  <circle cx="4" cy="20" r="2" fill="url(#sparkleGradient)"/>
</svg>
